<svg version="1.1" id="Layer_1" xmlns="http://www.w3.org/2000/svg" xmlns:xlink="http://www.w3.org/1999/xlink" x="0px" y="0px"
	 width="100%" viewBox="0 0 343 203" enable-background="new 0 0 343 203" xml:space="preserve">
<path fill="#FDFDFE" opacity="1.000000" stroke="none" 
	d="
M259.000000,204.000000 
	C172.666672,204.000000 86.833351,204.000000 1.000023,204.000000 
	C1.000015,136.333359 1.000015,68.666702 1.000008,1.000041 
	C115.333305,1.000027 229.666611,1.000027 343.999939,1.000014 
	C343.999939,68.666626 343.999939,136.333252 343.999969,203.999939 
	C315.833344,204.000000 287.666656,204.000000 259.000000,204.000000 
M260.280609,169.248657 
	C264.364319,175.328003 268.358612,181.470917 272.602264,187.436478 
	C273.522064,188.729523 275.256500,190.013443 276.756500,190.206223 
	C280.011169,190.624496 283.356750,190.335175 286.892578,190.335175 
	C286.892578,172.860077 286.892578,155.813965 286.892578,138.644180 
	C282.688782,138.644180 278.806152,138.644180 274.256042,138.644180 
	C274.256042,148.270813 274.256042,157.568848 274.256042,168.315872 
	C267.629700,158.445709 261.962860,149.874527 256.115021,141.428665 
	C255.192322,140.096085 253.541855,138.634293 252.070206,138.442596 
	C248.676529,138.000519 245.185959,138.302277 241.621887,138.302277 
	C241.621887,155.918365 241.621887,172.945999 241.621887,190.066010 
	C245.909073,190.066010 249.835876,190.066010 254.184021,190.066010 
	C254.184021,180.415619 254.184021,171.027954 254.184021,160.219543 
	C256.620758,163.800446 258.264587,166.216110 260.280609,169.248657 
M111.855942,160.708206 
	C111.855942,163.798508 111.855942,166.888824 111.855942,170.283875 
	C115.815025,170.283875 119.093712,170.283875 122.539841,170.283875 
	C122.539841,172.995163 122.539841,175.376541 122.539841,178.315643 
	C118.787270,178.315643 115.292099,178.687454 111.904320,178.242203 
	C103.531998,177.141846 100.424408,172.871429 100.728439,163.605316 
	C101.000465,155.315079 104.612144,150.989243 112.706078,150.633667 
	C119.285843,150.344604 125.909630,151.057648 132.739166,151.335434 
	C132.739166,147.859680 132.739166,143.801788 132.739166,139.583160 
	C123.931610,137.635178 115.387337,136.946869 106.806007,139.176453 
	C96.060936,141.968185 88.540649,150.734299 87.911392,161.066895 
	C87.059715,175.051773 92.197365,184.593246 103.474304,188.842331 
	C113.435837,192.595764 123.471970,191.165237 133.324570,187.992477 
	C134.209991,187.707321 135.421082,186.517838 135.433884,185.731308 
	C135.582169,176.621124 135.528641,167.507660 135.528641,158.161026 
	C128.051437,158.161026 121.229683,158.105072 114.411308,158.231689 
	C113.556961,158.247559 112.720512,159.227264 111.855942,160.708206 
M34.180946,138.349640 
	C27.584974,138.349640 20.989002,138.349640 14.404890,138.349640 
	C14.404890,156.007889 14.404890,172.935226 14.404890,190.271759 
	C21.133698,190.271759 27.610245,190.504959 34.064529,190.224960 
	C49.154606,189.570328 59.032211,179.470596 59.267315,164.769943 
	C59.506180,149.834351 50.312267,139.814117 34.180946,138.349640 
M210.915726,161.742157 
	C210.006989,150.635513 204.392273,142.381210 193.696808,139.884720 
	C184.865387,137.823334 175.418945,138.396866 166.329346,137.808273 
	C166.329346,156.033096 166.329346,173.053833 166.329346,190.320892 
	C172.470825,190.320892 178.275955,190.419617 184.076691,190.302292 
	C201.200409,189.955994 211.013351,179.835495 210.915726,161.742157 
M309.955994,156.452026 
	C309.955994,154.383316 309.955994,152.314590 309.955994,149.795395 
	C319.002930,149.795395 327.241241,149.795395 335.450195,149.795395 
	C335.450195,145.772446 335.450195,142.222168 335.450195,138.581543 
	C322.501007,138.581543 309.930450,138.581543 297.294464,138.581543 
	C297.294464,155.915207 297.294464,172.962418 297.294464,190.077545 
	C310.172028,190.077545 322.765991,190.077545 335.582886,190.077545 
	C335.582886,186.243774 335.582886,182.670456 335.582886,178.542603 
	C326.978485,178.542603 318.603790,178.542603 310.302124,178.542603 
	C310.302124,175.414948 310.302124,172.858551 310.302124,169.865906 
	C317.214355,169.865906 323.777802,169.865906 330.363586,169.865906 
	C330.363586,165.816635 330.363586,162.225845 330.363586,158.160767 
	C328.138489,158.160767 326.184448,158.231827 324.237213,158.146667 
	C319.499359,157.939484 314.764648,157.659821 309.955994,156.452026 
M170.500000,115.093040 
	C180.824554,115.091759 191.149246,115.057426 201.473587,115.102859 
	C206.797302,115.126282 211.042984,113.000267 214.812973,109.322617 
	C216.579147,107.599678 218.797760,106.027763 221.102859,105.233597 
	C226.283966,103.448578 231.670410,102.267372 236.913406,100.646736 
	C237.792755,100.374916 239.118118,98.808914 238.941772,98.401001 
	C238.509933,97.402100 237.433716,96.491516 236.400436,96.003319 
	C235.579651,95.615509 234.438568,95.896187 233.439682,95.896149 
	C194.472717,95.894608 155.505768,95.894844 116.538803,95.895393 
	C115.706192,95.895409 114.729950,95.624580 114.072449,95.965530 
	C112.895012,96.576118 111.909462,97.556740 110.843704,98.382690 
	C111.738106,99.218735 112.497620,100.493942 113.549568,100.817039 
	C118.954117,102.477020 124.464539,103.792412 129.868530,105.453987 
	C131.483261,105.950470 133.290833,106.849159 134.292404,108.126350 
	C137.963135,112.807251 142.635162,115.093292 148.517792,115.090118 
	C155.511856,115.086349 162.505936,115.091690 170.500000,115.093040 
M156.602661,183.301498 
	C156.602661,168.381668 156.602661,153.461853 156.602661,138.624878 
	C151.886597,138.624878 147.981369,138.624878 144.120941,138.624878 
	C144.120941,156.042023 144.120941,173.112900 144.120941,190.012558 
	C148.403564,190.012558 152.334534,190.012558 156.602600,190.012558 
	C156.602600,187.867462 156.602600,186.052734 156.602661,183.301498 
M79.970764,158.500244 
	C79.970764,151.916779 79.970764,145.333298 79.970764,138.588867 
	C75.431938,138.588867 71.541313,138.588867 67.473236,138.588867 
	C67.473236,155.906097 67.473236,172.907333 67.473236,190.088043 
	C71.709084,190.088043 75.627052,190.088043 79.970764,190.088043 
	C79.970764,179.714676 79.970764,169.607422 79.970764,158.500244 
M218.955566,163.500000 
	C218.955566,172.304703 218.955566,181.109406 218.955566,189.997284 
	C223.414932,189.997284 227.485123,189.997284 231.543671,189.997284 
	C231.543671,172.714478 231.543671,155.778442 231.543671,138.659485 
	C227.243423,138.659485 223.207535,138.659485 218.955566,138.659485 
	C218.955566,146.850800 218.955566,154.675400 218.955566,163.500000 
M180.621170,76.379883 
	C174.483337,77.733177 167.555222,77.729797 162.383850,80.742203 
	C153.548264,85.889053 146.118515,87.402596 138.497208,79.373405 
	C137.977722,78.826118 136.250397,79.425301 135.084808,79.491302 
	C135.547455,80.573608 135.710449,82.048965 136.524872,82.669838 
	C139.960999,85.289406 143.682037,87.535240 147.118057,90.154922 
	C149.336868,91.846581 150.995239,91.705910 153.306778,90.148376 
	C172.254990,77.380844 191.394333,77.442162 210.163956,89.981850 
	C211.339996,90.767548 213.213043,90.509941 214.761810,90.737724 
	C213.945801,89.328201 213.467300,87.445419 212.260071,86.584465 
	C203.084717,80.041008 192.786514,76.677574 180.621170,76.379883 
M186.174576,18.715199 
	C186.584457,17.810163 187.130737,16.939997 187.373062,15.992129 
	C187.760376,14.477238 187.945862,12.910748 188.216675,11.366073 
	C186.750946,12.194621 184.855850,12.687167 183.897034,13.912402 
	C180.528168,18.217363 181.545074,23.295465 186.355484,27.974543 
	C190.184326,31.698828 190.188400,34.967453 186.368637,38.544857 
	C180.444153,44.093456 180.189087,49.147789 185.939331,54.747086 
	C189.297867,58.017429 190.517715,61.093552 187.247284,65.122803 
	C186.654358,65.853310 187.037582,67.376144 186.970169,68.533203 
	C188.148926,68.263794 189.628922,68.355125 190.455978,67.664520 
	C194.770599,64.061768 194.374313,56.993542 189.776962,52.643650 
	C184.811554,47.945511 184.838135,45.630615 189.911606,40.916054 
	C194.577942,36.579784 194.593475,30.582869 190.272003,25.905722 
	C188.555618,24.048063 187.443832,21.631756 186.174576,18.715199 
M174.755417,46.591919 
	C176.010117,44.743488 176.997910,42.618713 178.570694,41.099590 
	C182.904190,36.913956 183.446930,30.200127 179.266006,26.446798 
	C178.409958,25.678295 176.760239,25.793871 175.476349,25.501930 
	C175.714417,26.642731 175.613831,28.039633 176.249283,28.879919 
	C178.973587,32.482441 178.482956,35.437138 175.234177,38.458229 
	C169.006226,44.249695 169.040604,49.139324 175.298035,55.342140 
	C178.378006,58.395218 179.105362,61.332710 176.160583,64.936813 
	C175.506790,65.737000 175.844269,67.347115 175.725327,68.584305 
	C177.013351,68.150146 178.673798,68.083015 179.525452,67.218811 
	C183.390152,63.297245 182.836166,57.013096 178.734436,52.850426 
	C177.171204,51.263977 176.072723,49.219585 174.755417,46.591919 
M200.328674,57.572197 
	C200.075104,59.882885 199.840408,62.195858 199.560806,64.503395 
	C199.394592,65.875122 199.157730,67.238289 198.952637,68.605309 
	C200.337921,68.028206 202.144577,67.821960 203.035461,66.809738 
	C206.864166,62.459549 206.100922,56.620972 201.127655,52.357727 
	C197.824402,49.526054 197.024155,46.629616 199.384949,42.805130 
	C200.059418,41.712490 199.921738,40.118538 200.156479,38.754456 
	C198.771561,39.393036 196.929214,39.683117 196.112778,40.754784 
	C194.988647,42.230312 194.341232,44.244957 194.016754,46.119873 
	C193.141922,51.175026 196.913025,53.879101 200.328674,57.572197 
M147.812088,48.064995 
	C149.171829,50.428490 150.145828,53.161736 151.977631,55.072742 
	C155.076599,58.305733 156.274094,61.201458 152.971176,64.967049 
	C152.314697,65.715485 152.461456,67.168472 152.237808,68.296577 
	C153.530029,68.080193 155.212128,68.307526 156.048676,67.572510 
	C160.223236,63.904633 159.915833,57.115170 155.611679,52.952976 
	C150.532959,48.041763 150.504532,47.631222 154.059464,41.795532 
	C154.491730,41.085930 154.394165,40.053581 154.542160,39.170807 
	C153.475021,39.133327 151.689453,38.701256 151.457962,39.122749 
	C150.012512,41.754398 148.914413,44.576824 147.812088,48.064995 
M167.937668,25.655457 
	C163.259964,21.476355 163.033630,19.907473 165.998703,15.153300 
	C166.575348,14.228683 166.447769,12.864841 166.645020,11.703597 
	C165.369370,12.016419 163.715042,11.926147 162.881332,12.709394 
	C158.438034,16.883785 158.976028,23.087614 164.315231,27.919365 
	C167.776917,31.052036 168.322693,34.099194 165.486237,37.882744 
	C164.870529,38.704060 165.006760,40.089081 164.796661,41.214466 
	C166.059479,40.887650 167.673981,40.945095 168.523956,40.167194 
	C172.118973,36.877045 171.996124,31.362759 167.937668,25.655457 
M168.126236,54.583534 
	C166.522995,53.986538 164.919769,53.389538 163.316544,52.792534 
	C163.782913,54.166752 164.000610,55.701649 164.764404,56.883682 
	C166.702057,59.882439 166.211777,62.390331 164.021667,65.019470 
	C163.384293,65.784592 163.557281,67.224777 163.358795,68.355530 
	C164.664459,68.114624 166.473648,68.335373 167.189972,67.554108 
	C170.565292,63.872803 171.124542,59.655270 168.126236,54.583534 
z"/>
<path fill="#181818" opacity="1.000000" stroke="none" 
	d="
M260.094513,168.940216 
	C258.264587,166.216110 256.620758,163.800446 254.184021,160.219543 
	C254.184021,171.027954 254.184021,180.415619 254.184021,190.066010 
	C249.835876,190.066010 245.909073,190.066010 241.621887,190.066010 
	C241.621887,172.945999 241.621887,155.918365 241.621887,138.302277 
	C245.185959,138.302277 248.676529,138.000519 252.070206,138.442596 
	C253.541855,138.634293 255.192322,140.096085 256.115021,141.428665 
	C261.962860,149.874527 267.629700,158.445709 274.256042,168.315872 
	C274.256042,157.568848 274.256042,148.270813 274.256042,138.644180 
	C278.806152,138.644180 282.688782,138.644180 286.892578,138.644180 
	C286.892578,155.813965 286.892578,172.860077 286.892578,190.335175 
	C283.356750,190.335175 280.011169,190.624496 276.756500,190.206223 
	C275.256500,190.013443 273.522064,188.729523 272.602264,187.436478 
	C268.358612,181.470917 264.364319,175.328003 260.094513,168.940216 
z"/>
<path fill="#191919" opacity="1.000000" stroke="none" 
	d="
M111.865852,160.234283 
	C112.720512,159.227264 113.556961,158.247559 114.411308,158.231689 
	C121.229683,158.105072 128.051437,158.161026 135.528641,158.161026 
	C135.528641,167.507660 135.582169,176.621124 135.433884,185.731308 
	C135.421082,186.517838 134.209991,187.707321 133.324570,187.992477 
	C123.471970,191.165237 113.435837,192.595764 103.474304,188.842331 
	C92.197365,184.593246 87.059715,175.051773 87.911392,161.066895 
	C88.540649,150.734299 96.060936,141.968185 106.806007,139.176453 
	C115.387337,136.946869 123.931610,137.635178 132.739166,139.583160 
	C132.739166,143.801788 132.739166,147.859680 132.739166,151.335434 
	C125.909630,151.057648 119.285843,150.344604 112.706078,150.633667 
	C104.612144,150.989243 101.000465,155.315079 100.728439,163.605316 
	C100.424408,172.871429 103.531998,177.141846 111.904320,178.242203 
	C115.292099,178.687454 118.787270,178.315643 122.539841,178.315643 
	C122.539841,175.376541 122.539841,172.995163 122.539841,170.283875 
	C119.093712,170.283875 115.815025,170.283875 111.855942,170.283875 
	C111.855942,166.888824 111.855942,163.798508 111.865852,160.234283 
z"/>
<path fill="#191919" opacity="1.000000" stroke="none" 
	d="
M34.636520,138.385773 
	C50.312267,139.814117 59.506180,149.834351 59.267315,164.769943 
	C59.032211,179.470596 49.154606,189.570328 34.064529,190.224960 
	C27.610245,190.504959 21.133698,190.271759 14.404890,190.271759 
	C14.404890,172.935226 14.404890,156.007889 14.404890,138.349640 
	C20.989002,138.349640 27.584974,138.349640 34.636520,138.385773 
M38.135738,150.929596 
	C34.589333,150.572601 31.042931,150.215607 27.246813,149.833466 
	C27.246813,159.826721 27.246813,169.009216 27.246813,178.147293 
	C37.044712,179.527176 43.277039,176.676407 45.583229,169.939301 
	C48.232895,162.198792 45.741161,155.209610 38.135738,150.929596 
z"/>
<path fill="#161616" opacity="1.000000" stroke="none" 
	d="
M210.958420,162.194427 
	C211.013351,179.835495 201.200409,189.955994 184.076691,190.302292 
	C178.275955,190.419617 172.470825,190.320892 166.329346,190.320892 
	C166.329346,173.053833 166.329346,156.033096 166.329346,137.808273 
	C175.418945,138.396866 184.865387,137.823334 193.696808,139.884720 
	C204.392273,142.381210 210.006989,150.635513 210.958420,162.194427 
M190.476349,177.302383 
	C197.462860,173.292236 200.164017,166.209656 197.608032,158.602768 
	C195.347488,151.875183 189.190689,149.153244 179.221985,150.582153 
	C179.221985,159.792709 179.221985,169.028305 179.221985,178.960678 
	C182.972672,178.512375 186.380569,178.105042 190.476349,177.302383 
z"/>
<path fill="#181818" opacity="1.000000" stroke="none" 
	d="
M309.992340,156.930679 
	C314.764648,157.659821 319.499359,157.939484 324.237213,158.146667 
	C326.184448,158.231827 328.138489,158.160767 330.363586,158.160767 
	C330.363586,162.225845 330.363586,165.816635 330.363586,169.865906 
	C323.777802,169.865906 317.214355,169.865906 310.302124,169.865906 
	C310.302124,172.858551 310.302124,175.414948 310.302124,178.542603 
	C318.603790,178.542603 326.978485,178.542603 335.582886,178.542603 
	C335.582886,182.670456 335.582886,186.243774 335.582886,190.077545 
	C322.765991,190.077545 310.172028,190.077545 297.294464,190.077545 
	C297.294464,172.962418 297.294464,155.915207 297.294464,138.581543 
	C309.930450,138.581543 322.501007,138.581543 335.450195,138.581543 
	C335.450195,142.222168 335.450195,145.772446 335.450195,149.795395 
	C327.241241,149.795395 319.002930,149.795395 309.955994,149.795395 
	C309.955994,152.314590 309.955994,154.383316 309.992340,156.930679 
z"/>
<path fill="#145FBB" opacity="1.000000" stroke="none" 
	d="
M170.000000,115.093063 
	C162.505936,115.091690 155.511856,115.086349 148.517792,115.090118 
	C142.635162,115.093292 137.963135,112.807251 134.292404,108.126350 
	C133.290833,106.849159 131.483261,105.950470 129.868530,105.453987 
	C124.464539,103.792412 118.954117,102.477020 113.549568,100.817039 
	C112.497620,100.493942 111.738106,99.218735 110.843704,98.382690 
	C111.909462,97.556740 112.895012,96.576118 114.072449,95.965530 
	C114.729950,95.624580 115.706192,95.895409 116.538803,95.895393 
	C155.505768,95.894844 194.472717,95.894608 233.439682,95.896149 
	C234.438568,95.896187 235.579651,95.615509 236.400436,96.003319 
	C237.433716,96.491516 238.509933,97.402100 238.941772,98.401001 
	C239.118118,98.808914 237.792755,100.374916 236.913406,100.646736 
	C231.670410,102.267372 226.283966,103.448578 221.102859,105.233597 
	C218.797760,106.027763 216.579147,107.599678 214.812973,109.322617 
	C211.042984,113.000267 206.797302,115.126282 201.473587,115.102859 
	C191.149246,115.057426 180.824554,115.091759 170.000000,115.093063 
M161.500015,99.810730 
	C150.393417,99.810730 139.286835,99.810730 127.565926,99.810730 
	C131.484589,101.821289 135.746353,102.653236 137.466019,105.201019 
	C140.188492,109.234550 143.576141,110.872803 147.774490,110.914772 
	C165.911804,111.096039 184.058441,111.240028 202.185150,110.765472 
	C205.482910,110.679138 208.765945,107.749245 211.932968,105.919487 
	C213.499374,105.014496 214.644318,103.350433 216.237350,102.528954 
	C218.027603,101.605759 220.108200,101.245598 222.062500,100.640495 
	C221.999893,100.363884 221.937286,100.087265 221.874680,99.810654 
	C202.083130,99.810654 182.291580,99.810654 161.500015,99.810730 
z"/>
<path fill="#1C1C1C" opacity="1.000000" stroke="none" 
	d="
M156.602631,183.769745 
	C156.602600,186.052734 156.602600,187.867462 156.602600,190.012558 
	C152.334534,190.012558 148.403564,190.012558 144.120941,190.012558 
	C144.120941,173.112900 144.120941,156.042023 144.120941,138.624878 
	C147.981369,138.624878 151.886597,138.624878 156.602661,138.624878 
	C156.602661,153.461853 156.602661,168.381668 156.602631,183.769745 
z"/>
<path fill="#1D1D1D" opacity="1.000000" stroke="none" 
	d="
M79.970764,159.000198 
	C79.970764,169.607422 79.970764,179.714676 79.970764,190.088043 
	C75.627052,190.088043 71.709084,190.088043 67.473236,190.088043 
	C67.473236,172.907333 67.473236,155.906097 67.473236,138.588867 
	C71.541313,138.588867 75.431938,138.588867 79.970764,138.588867 
	C79.970764,145.333298 79.970764,151.916779 79.970764,159.000198 
z"/>
<path fill="#191919" opacity="1.000000" stroke="none" 
	d="
M218.955566,163.000000 
	C218.955566,154.675400 218.955566,146.850800 218.955566,138.659485 
	C223.207535,138.659485 227.243423,138.659485 231.543671,138.659485 
	C231.543671,155.778442 231.543671,172.714478 231.543671,189.997284 
	C227.485123,189.997284 223.414932,189.997284 218.955566,189.997284 
	C218.955566,181.109406 218.955566,172.304703 218.955566,163.000000 
z"/>
<path fill="#1862BC" opacity="1.000000" stroke="none" 
	d="
M181.063324,76.377289 
	C192.786514,76.677574 203.084717,80.041008 212.260071,86.584465 
	C213.467300,87.445419 213.945801,89.328201 214.761810,90.737717 
	C213.213043,90.509941 211.339996,90.767548 210.163956,89.981850 
	C191.394333,77.442162 172.254990,77.380844 153.306778,90.148376 
	C150.995239,91.705910 149.336868,91.846581 147.118057,90.154922 
	C143.682037,87.535240 139.960999,85.289406 136.524872,82.669838 
	C135.710449,82.048965 135.547455,80.573608 135.084808,79.491302 
	C136.250397,79.425301 137.977722,78.826118 138.497208,79.373405 
	C146.118515,87.402596 153.548264,85.889053 162.383850,80.742203 
	C167.555222,77.729797 174.483337,77.733177 181.063324,76.377289 
z"/>
<path fill="#1761BC" opacity="1.000000" stroke="none" 
	d="
M186.115677,19.092495 
	C187.443832,21.631756 188.555618,24.048063 190.272003,25.905722 
	C194.593475,30.582869 194.577942,36.579784 189.911606,40.916054 
	C184.838135,45.630615 184.811554,47.945511 189.776962,52.643650 
	C194.374313,56.993542 194.770599,64.061768 190.455978,67.664520 
	C189.628922,68.355125 188.148926,68.263794 186.970169,68.533203 
	C187.037582,67.376144 186.654358,65.853310 187.247284,65.122803 
	C190.517715,61.093552 189.297867,58.017429 185.939331,54.747086 
	C180.189087,49.147789 180.444153,44.093456 186.368637,38.544857 
	C190.188400,34.967453 190.184326,31.698828 186.355484,27.974543 
	C181.545074,23.295465 180.528168,18.217363 183.897034,13.912402 
	C184.855850,12.687167 186.750946,12.194621 188.216675,11.366073 
	C187.945862,12.910748 187.760376,14.477238 187.373062,15.992129 
	C187.130737,16.939997 186.584457,17.810163 186.115677,19.092495 
z"/>
<path fill="#145EBB" opacity="1.000000" stroke="none" 
	d="
M174.758942,46.987907 
	C176.072723,49.219585 177.171204,51.263977 178.734436,52.850426 
	C182.836166,57.013096 183.390152,63.297245 179.525452,67.218811 
	C178.673798,68.083015 177.013351,68.150146 175.725342,68.584305 
	C175.844269,67.347115 175.506790,65.737000 176.160583,64.936813 
	C179.105362,61.332710 178.378006,58.395218 175.298035,55.342140 
	C169.040604,49.139324 169.006226,44.249695 175.234177,38.458229 
	C178.482956,35.437138 178.973587,32.482441 176.249283,28.879919 
	C175.613831,28.039633 175.714417,26.642731 175.476349,25.501930 
	C176.760239,25.793871 178.409958,25.678295 179.266006,26.446798 
	C183.446930,30.200127 182.904190,36.913956 178.570694,41.099590 
	C176.997910,42.618713 176.010117,44.743488 174.758942,46.987907 
z"/>
<path fill="#1862BC" opacity="1.000000" stroke="none" 
	d="
M200.116943,57.251640 
	C196.913025,53.879101 193.141922,51.175026 194.016754,46.119873 
	C194.341232,44.244957 194.988647,42.230312 196.112778,40.754784 
	C196.929214,39.683117 198.771561,39.393036 200.156464,38.754459 
	C199.921738,40.118538 200.059418,41.712490 199.384949,42.805130 
	C197.024155,46.629616 197.824402,49.526054 201.127655,52.357727 
	C206.100922,56.620972 206.864166,62.459549 203.035461,66.809738 
	C202.144577,67.821960 200.337921,68.028206 198.952637,68.605309 
	C199.157730,67.238289 199.394592,65.875122 199.560806,64.503395 
	C199.840408,62.195858 200.075104,59.882885 200.116943,57.251640 
z"/>
<path fill="#145FBB" opacity="1.000000" stroke="none" 
	d="
M147.756668,47.700523 
	C148.914413,44.576824 150.012512,41.754398 151.457962,39.122749 
	C151.689453,38.701256 153.475021,39.133327 154.542160,39.170807 
	C154.394165,40.053581 154.491730,41.085930 154.059464,41.795532 
	C150.504532,47.631222 150.532959,48.041763 155.611679,52.952976 
	C159.915833,57.115170 160.223236,63.904633 156.048676,67.572510 
	C155.212128,68.307526 153.530029,68.080193 152.237808,68.296570 
	C152.461456,67.168472 152.314697,65.715485 152.971176,64.967049 
	C156.274094,61.201458 155.076599,58.305733 151.977631,55.072742 
	C150.145828,53.161736 149.171829,50.428490 147.756668,47.700523 
z"/>
<path fill="#145EBB" opacity="1.000000" stroke="none" 
	d="
M168.209961,25.919201 
	C171.996124,31.362759 172.118973,36.877045 168.523956,40.167194 
	C167.673981,40.945095 166.059479,40.887650 164.796661,41.214466 
	C165.006760,40.089081 164.870529,38.704060 165.486237,37.882744 
	C168.322693,34.099194 167.776917,31.052036 164.315231,27.919365 
	C158.976028,23.087614 158.438034,16.883785 162.881332,12.709394 
	C163.715042,11.926147 165.369370,12.016419 166.645020,11.703598 
	C166.447769,12.864841 166.575348,14.228683 165.998703,15.153300 
	C163.033630,19.907473 163.259964,21.476355 168.209961,25.919201 
z"/>
<path fill="#1A63BC" opacity="1.000000" stroke="none" 
	d="
M168.347168,54.892128 
	C171.124542,59.655270 170.565292,63.872803 167.189972,67.554108 
	C166.473648,68.335373 164.664459,68.114624 163.358795,68.355530 
	C163.557281,67.224777 163.384293,65.784592 164.021667,65.019470 
	C166.211777,62.390331 166.702057,59.882439 164.764404,56.883682 
	C164.000610,55.701649 163.782913,54.166752 163.316528,52.792534 
	C164.919769,53.389538 166.522995,53.986538 168.347168,54.892128 
z"/>
<path fill="#F7F7F7" opacity="1.000000" stroke="none" 
	d="
M38.515110,151.053650 
	C45.741161,155.209610 48.232895,162.198792 45.583229,169.939301 
	C43.277039,176.676407 37.044712,179.527176 27.246813,178.147293 
	C27.246813,169.009216 27.246813,159.826721 27.246813,149.833466 
	C31.042931,150.215607 34.589333,150.572601 38.515110,151.053650 
z"/>
<path fill="#F9F9F9" opacity="1.000000" stroke="none" 
	d="
M190.132401,177.500046 
	C186.380569,178.105042 182.972672,178.512375 179.221985,178.960678 
	C179.221985,169.028305 179.221985,159.792709 179.221985,150.582153 
	C189.190689,149.153244 195.347488,151.875183 197.608032,158.602768 
	C200.164017,166.209656 197.462860,173.292236 190.132401,177.500046 
z"/>
<path fill="#EDF3FA" opacity="1.000000" stroke="none" 
	d="
M162.000031,99.810692 
	C182.291580,99.810654 202.083130,99.810654 221.874680,99.810654 
	C221.937286,100.087265 221.999893,100.363884 222.062500,100.640495 
	C220.108200,101.245598 218.027603,101.605759 216.237350,102.528954 
	C214.644318,103.350433 213.499374,105.014496 211.932968,105.919487 
	C208.765945,107.749245 205.482910,110.679138 202.185150,110.765472 
	C184.058441,111.240028 165.911804,111.096039 147.774490,110.914772 
	C143.576141,110.872803 140.188492,109.234550 137.466019,105.201019 
	C135.746353,102.653236 131.484589,101.821289 127.565926,99.810730 
	C139.286835,99.810730 150.393417,99.810730 162.000031,99.810692 
M169.500000,103.935158 
	C162.182785,103.935974 154.863098,103.840363 147.550613,104.026627 
	C146.236496,104.060104 144.951981,105.255760 143.653809,105.914841 
	C144.936005,106.595520 146.214035,107.859779 147.501022,107.868965 
	C165.626862,107.998482 183.754303,108.006561 201.879883,107.860184 
	C203.271606,107.848946 204.652161,106.456039 206.037918,105.705338 
	C204.668884,105.116013 203.306595,104.034538 201.929733,104.015648 
	C191.454758,103.871925 180.976929,103.935867 169.500000,103.935158 
z"/>
<path fill="#155FBB" opacity="1.000000" stroke="none" 
	d="
M170.000000,103.935143 
	C180.976929,103.935867 191.454758,103.871925 201.929733,104.015648 
	C203.306595,104.034538 204.668884,105.116013 206.037918,105.705338 
	C204.652161,106.456039 203.271606,107.848946 201.879883,107.860184 
	C183.754303,108.006561 165.626862,107.998482 147.501022,107.868965 
	C146.214035,107.859779 144.936005,106.595520 143.653809,105.914841 
	C144.951981,105.255760 146.236496,104.060104 147.550613,104.026627 
	C154.863098,103.840363 162.182785,103.935974 170.000000,103.935143 
z"/>
</svg>